<?xml version="1.0" encoding="utf-8"?>
<!-- Generator: Adobe Illustrator 24.0.0, SVG Export Plug-In . SVG Version: 6.00 Build 0)  -->
<svg version="1.1" id="Layer_1" xmlns="http://www.w3.org/2000/svg" xmlns:xlink="http://www.w3.org/1999/xlink" x="0px" y="0px"
	 viewBox="0 0 512 512" enable-background="new 0 0 512 512" xml:space="preserve">
<g>
	<path fill="#A5C3DC" d="M430.392,97.608C388.084,55.3,331.833,32,272,32h-32c-59.833,0-116.084,23.3-158.392,65.608
		C39.3,139.916,16,196.167,16,256c0,42.45,11.836,83.454,34.311,119.141l-33.166,82.916c-1.972,4.93-1.37,10.516,1.606,14.912
		C21.728,477.366,26.691,480,32,480h32c2.036,0,4.052-0.388,5.942-1.144l63.938-25.575C166.371,470.784,202.887,480,240,480h32
		c59.833,0,116.084-23.3,158.392-65.608C472.7,372.084,496,315.833,496,256S472.7,139.916,430.392,97.608z"/>
	<g>
		<path fill="#5FAA46" d="M240,48C125.125,48,32,141.125,32,256c0,43.538,13.398,83.934,36.265,117.337L32,464l90.662-36.265
			C156.066,450.603,196.463,464,240,464c114.875,0,208-93.125,208-208S354.875,48,240,48z"/>
		<path fill="#D7E6F0" d="M32.003,480c-4.167,0-8.258-1.628-11.317-4.687c-4.525-4.526-5.919-11.313-3.542-17.256l33.166-82.916
			C27.836,339.454,16,298.449,16,256c0-59.833,23.3-116.084,65.608-158.392C123.916,55.3,180.167,32,240,32
			s116.084,23.3,158.392,65.608C440.7,139.916,464,196.167,464,256s-23.3,116.084-65.608,158.392C356.084,456.7,299.833,480,240,480
			c-42.45,0-83.455-11.836-119.142-34.311l-82.916,33.166C36.016,479.626,34.001,480,32.003,480z M122.661,411.735
			c3.182,0,6.338,0.948,9.04,2.798C163.683,436.427,201.132,448,240,448c105.869,0,192-86.131,192-192S345.869,64,240,64
			S48,150.131,48,256c0,38.868,11.573,76.317,33.467,108.299c3.016,4.405,3.636,10.024,1.653,14.981l-22.399,56l56-22.4
			C118.638,412.113,120.654,411.735,122.661,411.735z"/>
	</g>
	<g>
		<path fill="#D7E6F0" d="M319.774,362.448l30.175-30.175c4.675-4.675,4.675-12.254,0-16.929l-42.323-42.323
			c-4.675-4.675-12.254-4.675-16.929,0l-16.929,16.929c-33.859-11.286-56.431-33.858-67.717-67.717l16.929-16.929
			c4.675-4.675,4.675-12.254,0-16.929l-42.323-42.323c-4.675-4.675-12.254-4.675-16.929,0l-30.175,30.175
			c-7.424,7.424-9.112,18.818-4.279,28.138c36.962,71.279,91.082,125.4,162.362,162.362
			C300.956,371.56,312.35,369.872,319.774,362.448z"/>
	</g>
</g>
</svg>
