<?xml version="1.0" encoding="utf-8"?>
<!-- Generator: Adobe Illustrator 24.0.0, SVG Export Plug-In . SVG Version: 6.00 Build 0)  -->
<svg version="1.1" id="Layer_1" xmlns="http://www.w3.org/2000/svg" xmlns:xlink="http://www.w3.org/1999/xlink" x="0px" y="0px"
	 viewBox="0 0 512 512" enable-background="new 0 0 512 512" xml:space="preserve">
<g>
	<g>
		<path fill="#AF3778" d="M384,464H160c-53.019,0-96-42.981-96-96V144c0-53.019,42.981-96,96-96h224c53.019,0,96,42.981,96,96v224
			C480,421.019,437.019,464,384,464z"/>
	</g>
	<g>
		<path fill="#CD5596" d="M352,464H128c-53.019,0-96-42.981-96-96V144c0-53.019,42.981-96,96-96h224c53.019,0,96,42.981,96,96v224
			C448,421.019,405.019,464,352,464z"/>
	</g>
	<g>
		<path fill="#D7E6F0" d="M312,412H168c-46.317,0-84-37.682-84-84V184c0-46.318,37.683-84,84-84h144c46.317,0,84,37.682,84,84v144
			C396,374.318,358.317,412,312,412z M168,124c-33.084,0-60,26.916-60,60v144c0,33.084,26.916,60,60,60h144
			c33.084,0,60-26.916,60-60V184c0-33.084-26.916-60-60-60H168z"/>
	</g>
	<g>
		<path fill="#D7E6F0" d="M240,332c-41.906,0-76-34.094-76-76s34.094-76,76-76s76,34.094,76,76S281.906,332,240,332z M240,204
			c-28.673,0-52,23.327-52,52s23.327,52,52,52s52-23.327,52-52S268.673,204,240,204z"/>
	</g>
	<g>
		<circle fill="#D7E6F0" cx="320" cy="176" r="16"/>
	</g>
</g>
</svg>
