<?xml version="1.0" encoding="utf-8"?>
<!-- Generator: Adobe Illustrator 24.0.0, SVG Export Plug-In . SVG Version: 6.00 Build 0)  -->
<svg version="1.1" id="Layer_1" xmlns="http://www.w3.org/2000/svg" xmlns:xlink="http://www.w3.org/1999/xlink" x="0px" y="0px"
	 viewBox="0 0 512 512" enable-background="new 0 0 512 512" xml:space="preserve">
<g>
	<path fill="#4182C3" d="M494.467,118.469c-1.083-2.616-3.636-4.321-6.467-4.321h-26.252l15.22-22.83
		c1.433-2.148,1.565-4.91,0.348-7.186c-1.219-2.276-3.59-3.697-6.172-3.697h-32c-0.65,0-1.298,0.091-1.923,0.269l-28.604,8.173
		c-16.449-11.049-35.552-16.87-55.468-16.87h-32c-54.98,0-99.711,44.73-99.711,99.711c0,0.636,0.007,1.276,0.02,1.92
		c-19.026-4.782-37.459-11.694-54.914-20.599c-20.846-10.622-40.243-24.043-57.652-39.89c-9.063-8.251-17.601-17.19-25.378-26.568
		c-1.33-1.604-3.306-2.531-5.389-2.531h-32c-2.602,0-4.989,1.443-6.198,3.747c-8.071,15.38-12.338,32.742-12.338,50.208
		c0,10.747,1.573,21.358,4.676,31.537c4.147,13.625,10.973,26.272,20.025,37.233c-4.99-1.302-9.938-2.75-14.81-4.335
		c-2.271-0.738-4.76-0.269-6.605,1.246c-1.846,1.514-2.792,3.865-2.511,6.236c2.612,22.021,11.818,42.427,26.62,59.006
		c7.961,8.935,17.176,16.381,27.333,22.156c-1.863,0.039-3.726,0.059-5.587,0.059c-2.67,0-5.134-0.034-7.532-0.103
		c-2.396-0.073-4.7,1.114-6.036,3.131c-1.337,2.017-1.537,4.58-0.53,6.78c14.36,31.374,42.929,53.75,75.963,60.809
		c-35.181,19.033-74.461,29.5-114.759,30.45c-3.147,0.074-5.857,2.24-6.624,5.293s0.599,6.243,3.338,7.795
		c40.052,22.699,85.708,34.697,132.035,34.697h32c71.66,0,139.03-27.905,189.7-78.575c50.67-50.67,78.575-118.04,78.575-189.701
		c0-1.765-0.05-3.565-0.148-5.381l40.239-40.239C494.952,124.096,495.551,121.085,494.467,118.469z"/>
	<path fill="#64AFE1" d="M461.954,117.468c-1.705-2.761-5.088-3.987-8.168-2.961l-31.215,10.405l22.396-33.594
		c1.628-2.442,1.56-5.64-0.17-8.01c-1.73-2.37-4.758-3.408-7.577-2.604L385.437,95.5c-17.974-15.178-40.649-23.493-64.288-23.493
		c-54.98,0-99.711,44.73-99.711,99.71c0,2.637,0.105,5.284,0.315,7.925c-30.5-3.688-59.823-12.631-87.21-26.604
		c-20.846-10.622-40.243-24.043-57.652-39.889C67.832,104.9,59.293,95.961,51.512,86.58c-1.493-1.802-3.791-2.735-6.118-2.493
		c-2.328,0.244-4.38,1.636-5.468,3.709c-8.071,15.38-12.338,32.742-12.338,50.208c0,10.747,1.573,21.358,4.676,31.537
		c4.156,13.653,10.969,26.287,19.997,37.226c-4.98-1.301-9.917-2.745-14.781-4.327c-2.27-0.737-4.759-0.269-6.605,1.245
		c-1.846,1.514-2.792,3.865-2.511,6.236c2.61,22.02,11.817,42.425,26.62,59.006c7.962,8.935,17.177,16.381,27.334,22.155
		c-1.863,0.039-3.727,0.059-5.588,0.059c-2.669,0-5.133-0.033-7.532-0.103c-2.411-0.073-4.699,1.114-6.036,3.131
		c-1.337,2.017-1.537,4.58-0.53,6.78c14.36,31.374,42.929,53.75,75.963,60.809c-35.18,19.033-74.46,29.5-114.759,30.45
		c-3.147,0.074-5.857,2.24-6.624,5.293s0.599,6.243,3.338,7.795c40.051,22.699,85.707,34.697,132.034,34.697
		c71.661,0,139.031-27.905,189.701-78.575c50.669-50.67,78.574-118.04,78.574-189.701c0-1.768-0.05-3.568-0.147-5.38l40.239-40.239
		C463.245,123.802,463.661,120.23,461.954,117.468z"/>
</g>
</svg>
